<svg id="Layer_1" data-name="Layer 1" xmlns="http://www.w3.org/2000/svg" viewBox="0 0 347.17 119.87"><defs><style>.cls-1{fill:#0077c8;}</style></defs><title>operun-webagentur-rgb-pfade</title><path class="cls-1" d="M277.48,272.93a20.49,20.49,0,0,1-1.05,6.74,15.86,15.86,0,0,1-3,5.27,14.54,14.54,0,0,1-4.8,3.34,15.58,15.58,0,0,1-6.15,1.17,15.42,15.42,0,0,1-6.09-1.17,14.69,14.69,0,0,1-4.75-3.34,15.3,15.3,0,0,1-3.11-5.27,19.49,19.49,0,0,1-1.11-6.74,19.19,19.19,0,0,1,1.11-6.74,15.42,15.42,0,0,1,3.11-5.21,14.2,14.2,0,0,1,4.8-3.34,15.26,15.26,0,0,1,6-1.17,15.7,15.7,0,0,1,6.09,1.17,13.49,13.49,0,0,1,4.8,3.34,16,16,0,0,1,3,5.21A19.21,19.21,0,0,1,277.48,272.93Zm-7.44,0a12.46,12.46,0,0,0-2-7.44,6.59,6.59,0,0,0-5.62-2.7,6.68,6.68,0,0,0-5.62,2.7,15,15,0,0,0,0,14.94,6.63,6.63,0,0,0,5.63,2.75,6.54,6.54,0,0,0,5.63-2.75A12.57,12.57,0,0,0,270,272.93Z" transform="translate(-247.36 -237.93)"/><path class="cls-1" d="M310.62,273a21.85,21.85,0,0,1-.94,6.56A15.3,15.3,0,0,1,307,284.7a12.22,12.22,0,0,1-4.39,3.4,14,14,0,0,1-5.86,1.17,15.11,15.11,0,0,1-4.1-.53,14.59,14.59,0,0,1-3-1.17v12.48l-7.27,1.17V258.28q2.23-.59,5.45-1.17a42.45,42.45,0,0,1,6.86-.53,17.71,17.71,0,0,1,6.62,1.17,12.64,12.64,0,0,1,5,3.28,14,14,0,0,1,3.22,5.16A19.39,19.39,0,0,1,310.62,273Zm-7.44.12q0-4.86-2.17-7.56t-7.09-2.7q-1,0-2.11.06a13.37,13.37,0,0,0-2.17.41v17.93a11.59,11.59,0,0,0,2.52,1.23,9.69,9.69,0,0,0,3.4.59q4,0,5.8-2.7A12.83,12.83,0,0,0,303.18,273.1Z" transform="translate(-247.36 -237.93)"/><path class="cls-1" d="M314.76,273.1a19.66,19.66,0,0,1,1.23-7.27,15,15,0,0,1,3.28-5.16,13.45,13.45,0,0,1,4.69-3.16,14.39,14.39,0,0,1,5.39-1.05q6.5,0,10.14,4t3.57,12v1.35q-.06.7-.12,1.35H322.26A8.09,8.09,0,0,0,325,281q2.34,2.11,6.86,2.11a22.75,22.75,0,0,0,4.8-.47,22.14,22.14,0,0,0,3.46-1.05q.35,2,1,6a12.64,12.64,0,0,1-1.64.59,16.28,16.28,0,0,1-2.46.59,26.08,26.08,0,0,1-2.87.47,28.63,28.63,0,0,1-3.16.18,19.19,19.19,0,0,1-7.21-1.23,13.66,13.66,0,0,1-5-3.4,13.44,13.44,0,0,1-2.93-5.16A20.44,20.44,0,0,1,314.76,273.1Zm21.09-3.28a8.52,8.52,0,0,0-.47-2.81,6.74,6.74,0,0,0-1.23-2.34,5.5,5.5,0,0,0-1.93-1.58,7.69,7.69,0,0,0-5.74.06,7.07,7.07,0,0,0-2.17,1.64,9.89,9.89,0,0,0-1.35,2.34,13.49,13.49,0,0,0-.64,2.7Z" transform="translate(-247.36 -237.93)"/><path class="cls-1" d="M367.07,263.79q-.88-.29-2.46-.64a21.17,21.17,0,0,0-3.69-.29,18.09,18.09,0,0,0-4.45.64v25.14l-7.27,1.17V258.75a44.8,44.8,0,0,1,5.21-1.46,32.47,32.47,0,0,1,7-.7,13.55,13.55,0,0,1,1.64.12,15.5,15.5,0,0,1,1.93.23,13.47,13.47,0,0,1,1.88.35l1.46.41Q367.89,259.69,367.07,263.79Z" transform="translate(-247.36 -237.93)"/><path class="cls-1" d="M398.52,287.69q-2.11.53-5.45,1.11a47.52,47.52,0,0,1-7.38.53,16.47,16.47,0,0,1-6.33-1.05,10.53,10.53,0,0,1-4.1-3,11.79,11.79,0,0,1-2.17-4.63,24.67,24.67,0,0,1-.64-5.86V257.22h7.27v16.46q0,5,1.46,7.21t5.1,2.17q1.35,0,2.81-.12a14.48,14.48,0,0,0,2.17-.29V257.22h7.27Z" transform="translate(-247.36 -237.93)"/><path class="cls-1" d="M406.18,258.28q2.11-.59,5.45-1.17a47.94,47.94,0,0,1,7.44-.53,17.11,17.11,0,0,1,6.45,1.05,9.4,9.4,0,0,1,4,3,10.89,10.89,0,0,1,2.23,4.51,27.62,27.62,0,0,1,.59,5.86v17.64l-7.27,1.17v-17.7a26.6,26.6,0,0,0-.29-4.28A7.19,7.19,0,0,0,423.7,265a4.05,4.05,0,0,0-2-1.7,9.33,9.33,0,0,0-3.16-.47,24.08,24.08,0,0,0-2.87.18q-1.52.18-2.23.29v25.31l-7.27,1.17V258.28Z" transform="translate(-247.36 -237.93)"/><path class="cls-1" d="M290,326.75q-1.52,4.92-6.09,19.75H278l-5.1-15.06q-4-11.72-5.33-16.35h7.68q1,4.51,2.75,10.72t3.34,11.84q1.52-5.62,3.22-11.72t2.87-10.84H293q.12.76,2.46,9.79T299,337.65q1.17-3.81,3-10.55t3-12h7.5q-1.7,5.27-5.27,16.05t-5.16,15.35h-5.86Q294.68,341.57,290,326.75Z" transform="translate(-247.36 -237.93)"/><path class="cls-1" d="M314.76,331A19.66,19.66,0,0,1,316,323.7a15,15,0,0,1,3.28-5.16,13.45,13.45,0,0,1,4.69-3.16,14.39,14.39,0,0,1,5.39-1.05q6.5,0,10.14,4t3.57,12v1.35c0,.47-.08.92-.12,1.35H322.26a8.09,8.09,0,0,0,2.7,5.8q2.34,2.11,6.86,2.11a22.71,22.71,0,0,0,4.8-.47,22.12,22.12,0,0,0,3.46-1.05q.35,2,1,6a12.64,12.64,0,0,1-1.64.59,16.22,16.22,0,0,1-2.46.59,26,26,0,0,1-2.87.47,28.63,28.63,0,0,1-3.16.18,19.19,19.19,0,0,1-7.21-1.23,13.66,13.66,0,0,1-5-3.4,13.44,13.44,0,0,1-2.93-5.16A20.43,20.43,0,0,1,314.76,331Zm21.09-3.28a8.51,8.51,0,0,0-.47-2.81,6.72,6.72,0,0,0-1.23-2.34,5.48,5.48,0,0,0-1.93-1.58,7.69,7.69,0,0,0-5.74.06,7.08,7.08,0,0,0-2.17,1.64A9.89,9.89,0,0,0,323,325a13.46,13.46,0,0,0-.64,2.7Z" transform="translate(-247.36 -237.93)"/><path class="cls-1" d="M377.43,330.85a19.71,19.71,0,0,1-1.11,6.8,14.5,14.5,0,0,1-3.22,5.21,13.52,13.52,0,0,1-5,3.28,18.56,18.56,0,0,1-6.62,1.11,42.44,42.44,0,0,1-6.86-.53,43.94,43.94,0,0,1-5.45-1.17V299.73q1.81-.35,7.27-1.23v17.7a19.63,19.63,0,0,1,3-1.23,15.11,15.11,0,0,1,4.1-.53,14,14,0,0,1,5.86,1.17,11.67,11.67,0,0,1,4.39,3.34,16,16,0,0,1,2.64,5.21A22.29,22.29,0,0,1,377.43,330.85Zm-7.44-.12a13,13,0,0,0-1.82-7.32q-1.82-2.69-5.8-2.7a10.68,10.68,0,0,0-3.4.53,10.15,10.15,0,0,0-2.52,1.17v18.11a15.85,15.85,0,0,0,2,.29,21.57,21.57,0,0,0,3,.18,7.71,7.71,0,0,0,6.27-2.75Q370,335.54,370,330.73Z" transform="translate(-247.36 -237.93)"/><path class="cls-1" d="M394.76,314.32a18.07,18.07,0,0,1,6,.88,9.84,9.84,0,0,1,3.93,2.58,8.52,8.52,0,0,1,2.11,3.93,18.53,18.53,0,0,1,.64,5v19q-1.7.35-5,.88a56.61,56.61,0,0,1-7.68.47,23.5,23.5,0,0,1-5.16-.53,10.88,10.88,0,0,1-4-1.76,8.26,8.26,0,0,1-2.52-3.11,10.82,10.82,0,0,1-.94-4.75,9.2,9.2,0,0,1,1.05-4.57,8.76,8.76,0,0,1,2.87-3,12.09,12.09,0,0,1,4.16-1.7,22.35,22.35,0,0,1,4.92-.53,18.64,18.64,0,0,1,2.52.18,15.56,15.56,0,0,1,2.81.53v-1.23a9.87,9.87,0,0,0-.29-2.4,4.94,4.94,0,0,0-1.05-2,4.88,4.88,0,0,0-2-1.35,8.62,8.62,0,0,0-3-.47,28.24,28.24,0,0,0-4.63.35,19.72,19.72,0,0,0-3.4.82q-.35-1.93-.94-5.86a35.77,35.77,0,0,1,4-1A32.13,32.13,0,0,1,394.76,314.32Zm.59,27.07a27.25,27.25,0,0,0,5.1-.35v-8q-.59-.18-1.7-.41a17,17,0,0,0-2.52-.18,17.38,17.38,0,0,0-2.46.18,9.3,9.3,0,0,0-2.23.7,4.27,4.27,0,0,0-.53,7.09A8.09,8.09,0,0,0,395.35,341.4Z" transform="translate(-247.36 -237.93)"/><path class="cls-1" d="M441.68,343.33q0,7.5-3.81,11t-11.66,3.52a29.84,29.84,0,0,1-5.62-.53,32.58,32.58,0,0,1-4.92-1.23q.41-2.05,1.29-6.21a20.48,20.48,0,0,0,4.28,1.29,26,26,0,0,0,5.1.47q4.39,0,6.27-1.82a7.11,7.11,0,0,0,1.82-5.33v-1.17a18.08,18.08,0,0,1-2.81,1.05,14.48,14.48,0,0,1-4,.53,15.37,15.37,0,0,1-5.51-.94,11,11,0,0,1-4.28-2.81,13.18,13.18,0,0,1-2.75-4.69,18.91,18.91,0,0,1-1-6.45,18.06,18.06,0,0,1,1.05-6.27,13.8,13.8,0,0,1,3-4.92,14.06,14.06,0,0,1,4.92-3.16,17.08,17.08,0,0,1,6.5-1.17,41,41,0,0,1,6.74.53q3.16.59,5.39,1.17ZM421.46,330q0,4.63,2,6.8a7,7,0,0,0,5.21,2.11,11.08,11.08,0,0,0,3.28-.47,8,8,0,0,0,2.46-1.17V321q-.76-.18-1.87-.35t-2.93-.12a7.35,7.35,0,0,0-6,2.58A10.64,10.64,0,0,0,421.46,330Z" transform="translate(-247.36 -237.93)"/><path class="cls-1" d="M448.58,331a19.66,19.66,0,0,1,1.23-7.27,15,15,0,0,1,3.28-5.16,13.45,13.45,0,0,1,4.69-3.16,14.39,14.39,0,0,1,5.39-1.05q6.5,0,10.14,4t3.57,12v1.35c0,.47-.08.92-.12,1.35H456.08a8.09,8.09,0,0,0,2.7,5.8q2.34,2.11,6.86,2.11a22.71,22.71,0,0,0,4.8-.47,22.12,22.12,0,0,0,3.46-1.05q.35,2,1,6a12.64,12.64,0,0,1-1.64.59,16.22,16.22,0,0,1-2.46.59,26,26,0,0,1-2.87.47,28.63,28.63,0,0,1-3.16.18,19.19,19.19,0,0,1-7.21-1.23,13.66,13.66,0,0,1-5-3.4,13.44,13.44,0,0,1-2.93-5.16A20.43,20.43,0,0,1,448.58,331Zm21.09-3.28a8.51,8.51,0,0,0-.47-2.81,6.72,6.72,0,0,0-1.23-2.34,5.48,5.48,0,0,0-1.93-1.58,7.69,7.69,0,0,0-5.74.06,7.08,7.08,0,0,0-2.17,1.64,9.89,9.89,0,0,0-1.35,2.34,13.46,13.46,0,0,0-.64,2.7Z" transform="translate(-247.36 -237.93)"/><path class="cls-1" d="M484,316.14q2.11-.59,5.45-1.17a48,48,0,0,1,7.44-.53,17.12,17.12,0,0,1,6.45,1.05,9.39,9.39,0,0,1,4,3,10.9,10.9,0,0,1,2.23,4.51,27.64,27.64,0,0,1,.59,5.86v17.64l-7.27,1.17V330a26.54,26.54,0,0,0-.29-4.28,7.19,7.19,0,0,0-1.11-2.81,4.05,4.05,0,0,0-2-1.7,9.32,9.32,0,0,0-3.16-.47,24.08,24.08,0,0,0-2.87.18q-1.52.18-2.23.29v25.31L484,347.66V316.14Z" transform="translate(-247.36 -237.93)"/><path class="cls-1" d="M518.92,306.82l7.27-1.17v9.43h8.26v6.09h-8.26v25.31l-7.27,1.17Z" transform="translate(-247.36 -237.93)"/><path class="cls-1" d="M567.71,345.56q-2.11.53-5.45,1.11a47.52,47.52,0,0,1-7.38.53,16.46,16.46,0,0,1-6.33-1.05,10.52,10.52,0,0,1-4.1-3,11.79,11.79,0,0,1-2.17-4.63,24.64,24.64,0,0,1-.64-5.86V315.09h7.27v16.46q0,5,1.46,7.21t5.1,2.17q1.35,0,2.81-.12a14.55,14.55,0,0,0,2.17-.29V315.09h7.27Z" transform="translate(-247.36 -237.93)"/><path class="cls-1" d="M593.24,321.65q-.88-.29-2.46-.64a21.11,21.11,0,0,0-3.69-.29,15.16,15.16,0,0,0-2.58.23,14.87,14.87,0,0,0-1.87.41v25.14l-7.27,1.17V316.61a44.67,44.67,0,0,1,5.21-1.46,32.47,32.47,0,0,1,7-.7,13.44,13.44,0,0,1,1.64.12,15.39,15.39,0,0,1,1.93.23,13.31,13.31,0,0,1,1.88.35l1.46.41Q594.06,317.55,593.24,321.65Z" transform="translate(-247.36 -237.93)"/><polygon class="cls-1" points="200.42 0 195.28 5.14 209.25 19.1 195.28 33.06 200.42 38.2 214.38 24.24 219.52 19.1 200.42 0"/><polygon class="cls-1" points="220.97 0 215.83 5.14 229.79 19.1 215.83 33.06 220.97 38.2 234.93 24.24 240.07 19.1 220.97 0"/></svg>